<mxfile host="app.diagrams.net" modified="2024-01-05T10:00:12.011Z" agent="Mozilla/5.0 (Windows NT 10.0; Win64; x64) AppleWebKit/537.36 (KHTML, like Gecko) Chrome/122.0.0.0 Safari/537.36" etag="ZGd01lbuWiPdRgxGVxk-" version="22.1.16" type="github">
  <diagram name="第 1 页" id="qwJIy_08daPYa1z6BfcS">
    <mxGraphModel dx="1221" dy="618" grid="1" gridSize="10" guides="1" tooltips="1" connect="1" arrows="1" fold="1" page="1" pageScale="1" pageWidth="827" pageHeight="1169" math="0" shadow="0">
      <root>
        <mxCell id="0" />
        <mxCell id="1" parent="0" />
        <mxCell id="DfZYJcFkfDTDG_fgt8T_-3" style="edgeStyle=orthogonalEdgeStyle;rounded=0;orthogonalLoop=1;jettySize=auto;html=1;entryX=1;entryY=0.5;entryDx=0;entryDy=0;" edge="1" parent="1" source="sCWcLk0dslTwzrith-sn-1" target="DfZYJcFkfDTDG_fgt8T_-1">
          <mxGeometry relative="1" as="geometry" />
        </mxCell>
        <mxCell id="DfZYJcFkfDTDG_fgt8T_-4" value="&lt;font style=&quot;font-size: 13px;&quot;&gt;需求响应&lt;/font&gt;" style="edgeLabel;html=1;align=center;verticalAlign=middle;resizable=0;points=[];" vertex="1" connectable="0" parent="DfZYJcFkfDTDG_fgt8T_-3">
          <mxGeometry x="-0.0191" y="3" relative="1" as="geometry">
            <mxPoint y="8" as="offset" />
          </mxGeometry>
        </mxCell>
        <mxCell id="DfZYJcFkfDTDG_fgt8T_-19" style="edgeStyle=orthogonalEdgeStyle;rounded=0;orthogonalLoop=1;jettySize=auto;html=1;entryX=0.375;entryY=1;entryDx=0;entryDy=0;" edge="1" parent="1" source="sCWcLk0dslTwzrith-sn-1" target="DfZYJcFkfDTDG_fgt8T_-15">
          <mxGeometry relative="1" as="geometry">
            <mxPoint x="409.5" y="690" as="targetPoint" />
            <Array as="points">
              <mxPoint x="400" y="690" />
              <mxPoint x="399" y="690" />
            </Array>
          </mxGeometry>
        </mxCell>
        <mxCell id="sCWcLk0dslTwzrith-sn-1" value="&lt;font style=&quot;font-size: 22px;&quot;&gt;打车软件平台&lt;/font&gt;" style="whiteSpace=wrap;html=1;aspect=fixed;" parent="1" vertex="1">
          <mxGeometry x="310" y="780" width="199" height="199" as="geometry" />
        </mxCell>
        <mxCell id="DfZYJcFkfDTDG_fgt8T_-2" style="edgeStyle=orthogonalEdgeStyle;rounded=0;orthogonalLoop=1;jettySize=auto;html=1;" edge="1" parent="1">
          <mxGeometry relative="1" as="geometry">
            <mxPoint x="310" y="860" as="targetPoint" />
            <mxPoint x="110" y="860" as="sourcePoint" />
          </mxGeometry>
        </mxCell>
        <mxCell id="DfZYJcFkfDTDG_fgt8T_-5" value="&lt;font style=&quot;font-size: 13px;&quot;&gt;行程预订/取消、支付、反馈&lt;/font&gt;" style="edgeLabel;html=1;align=center;verticalAlign=middle;resizable=0;points=[];" vertex="1" connectable="0" parent="DfZYJcFkfDTDG_fgt8T_-2">
          <mxGeometry x="-0.0433" y="-2" relative="1" as="geometry">
            <mxPoint x="4" y="-12" as="offset" />
          </mxGeometry>
        </mxCell>
        <mxCell id="DfZYJcFkfDTDG_fgt8T_-1" value="&lt;font style=&quot;font-size: 15px;&quot;&gt;乘客&lt;/font&gt;" style="ellipse;whiteSpace=wrap;html=1;aspect=fixed;" vertex="1" parent="1">
          <mxGeometry x="30" y="840" width="80" height="80" as="geometry" />
        </mxCell>
        <mxCell id="DfZYJcFkfDTDG_fgt8T_-9" value="&lt;font style=&quot;font-size: 15px;&quot;&gt;司机&lt;/font&gt;" style="ellipse;whiteSpace=wrap;html=1;aspect=fixed;" vertex="1" parent="1">
          <mxGeometry x="710" y="830" width="80" height="80" as="geometry" />
        </mxCell>
        <mxCell id="DfZYJcFkfDTDG_fgt8T_-10" style="edgeStyle=orthogonalEdgeStyle;rounded=0;orthogonalLoop=1;jettySize=auto;html=1;entryX=1.005;entryY=0.452;entryDx=0;entryDy=0;entryPerimeter=0;" edge="1" parent="1">
          <mxGeometry relative="1" as="geometry">
            <mxPoint x="710" y="860.1" as="sourcePoint" />
            <mxPoint x="509.9949999999999" y="860.0480000000001" as="targetPoint" />
          </mxGeometry>
        </mxCell>
        <mxCell id="DfZYJcFkfDTDG_fgt8T_-11" value="接单、录入信息、查询记录" style="text;html=1;align=center;verticalAlign=middle;resizable=0;points=[];autosize=1;strokeColor=none;fillColor=none;" vertex="1" parent="1">
          <mxGeometry x="540" y="830" width="170" height="30" as="geometry" />
        </mxCell>
        <mxCell id="DfZYJcFkfDTDG_fgt8T_-12" style="edgeStyle=orthogonalEdgeStyle;rounded=0;orthogonalLoop=1;jettySize=auto;html=1;entryX=-0.021;entryY=0.617;entryDx=0;entryDy=0;entryPerimeter=0;" edge="1" parent="1">
          <mxGeometry relative="1" as="geometry">
            <mxPoint x="509" y="879.64" as="sourcePoint" />
            <mxPoint x="708.3199999999999" y="879.4999999999999" as="targetPoint" />
          </mxGeometry>
        </mxCell>
        <mxCell id="DfZYJcFkfDTDG_fgt8T_-13" value="&lt;font size=&quot;1&quot;&gt;派单、安全监控&lt;/font&gt;" style="text;html=1;align=center;verticalAlign=middle;resizable=0;points=[];autosize=1;strokeColor=none;fillColor=none;" vertex="1" parent="1">
          <mxGeometry x="555" y="880" width="110" height="30" as="geometry" />
        </mxCell>
        <mxCell id="DfZYJcFkfDTDG_fgt8T_-15" value="&lt;font style=&quot;font-size: 16px;&quot;&gt;第三方服务&lt;/font&gt;" style="shape=hexagon;perimeter=hexagonPerimeter2;whiteSpace=wrap;html=1;fixedSize=1;" vertex="1" parent="1">
          <mxGeometry x="354" y="600" width="120" height="80" as="geometry" />
        </mxCell>
        <mxCell id="DfZYJcFkfDTDG_fgt8T_-16" style="edgeStyle=orthogonalEdgeStyle;rounded=0;orthogonalLoop=1;jettySize=auto;html=1;entryX=0.523;entryY=0.05;entryDx=0;entryDy=0;entryPerimeter=0;" edge="1" parent="1">
          <mxGeometry relative="1" as="geometry">
            <mxPoint x="430" y="680" as="sourcePoint" />
            <mxPoint x="430.077" y="789.95" as="targetPoint" />
          </mxGeometry>
        </mxCell>
        <mxCell id="DfZYJcFkfDTDG_fgt8T_-17" value="&lt;span style=&quot;font-size: 15px;&quot;&gt;地图定位，支付集成，信息处理&lt;/span&gt;" style="edgeLabel;html=1;align=center;verticalAlign=middle;resizable=0;points=[];" vertex="1" connectable="0" parent="DfZYJcFkfDTDG_fgt8T_-16">
          <mxGeometry x="-0.0371" y="-2" relative="1" as="geometry">
            <mxPoint x="112" as="offset" />
          </mxGeometry>
        </mxCell>
        <mxCell id="DfZYJcFkfDTDG_fgt8T_-20" value="&lt;font style=&quot;font-size: 14px;&quot;&gt;广告支持，数据共享&lt;/font&gt;" style="text;html=1;align=center;verticalAlign=middle;resizable=0;points=[];autosize=1;strokeColor=none;fillColor=none;" vertex="1" parent="1">
          <mxGeometry x="250" y="720" width="150" height="30" as="geometry" />
        </mxCell>
      </root>
    </mxGraphModel>
  </diagram>
</mxfile>
